HIERARCHY
ROOT Hips
{
 OFFSET 0.000000 0.000000 0.000000
 CHANNELS 6 Xposition Yposition Zposition Yrotation Xrotation Zrotation
 JOINT Chest
 {
  OFFSET 0.000000 9.588913 -0.003946
  CHANNELS 3 Yrotation Xrotation Zrotation
  JOINT Chest2
  {
   OFFSET 0.000000 9.541882 0.008053
   CHANNELS 3 Yrotation Xrotation Zrotation
   JOINT Chest3
   {
    OFFSET 0.000000 9.501360 0.000000
    CHANNELS 3 Yrotation Xrotation Zrotation
    JOINT Chest4
    {
     OFFSET 0.000000 9.491660 0.000000
     CHANNELS 3 Yrotation Xrotation Zrotation
     JOINT Neck
     {
      OFFSET 0.000000 14.331917 0.000000
      CHANNELS 3 Yrotation Xrotation Zrotation
      JOINT Head
      {
       OFFSET 0.000000 8.884799 0.017034
       CHANNELS 3 Yrotation Xrotation Zrotation
       End Site
       {
        OFFSET 0.000000 16.896195 0.008993
       }
      }
     }
     JOINT RightCollar
     {
      OFFSET -2.923010 9.499495 0.000000
      CHANNELS 3 Yrotation Xrotation Zrotation
      JOINT RightShoulder
      {
       OFFSET -13.795216 0.000000 0.000000
       CHANNELS 3 Yrotation Xrotation Zrotation
       JOINT RightElbow
       {
        OFFSET -30.272209 0.000000 0.000000
        CHANNELS 3 Yrotation Xrotation Zrotation
        JOINT RightWrist
        {
         OFFSET -24.478199 0.000000 0.000000
         CHANNELS 3 Yrotation Xrotation Zrotation
         End Site
         {
          OFFSET -18.090752 0.000000 0.000000
         }
        }
       }
      }
     }
     JOINT LeftCollar
     {
      OFFSET 2.923010 9.499495 0.000000
      CHANNELS 3 Yrotation Xrotation Zrotation
      JOINT LeftShoulder
      {
       OFFSET 13.795216 0.000000 0.000000
       CHANNELS 3 Yrotation Xrotation Zrotation
       JOINT LeftElbow
       {
        OFFSET 30.272209 0.000000 0.000000
        CHANNELS 3 Yrotation Xrotation Zrotation
        JOINT LeftWrist
        {
         OFFSET 24.478199 0.000000 0.000000
         CHANNELS 3 Yrotation Xrotation Zrotation
         End Site
         {
          OFFSET 18.090752 0.000000 0.000000
         }
        }
       }
      }
     }
    }
   }
  }
 }
 JOINT RightHip
 {
  OFFSET -7.826875 0.019532 0.001973
  CHANNELS 3 Yrotation Xrotation Zrotation
  JOINT RightKnee
  {
   OFFSET 0.000000 -40.546152 -0.001885
   CHANNELS 3 Yrotation Xrotation Zrotation
   JOINT RightAnkle
   {
    OFFSET 0.000000 -39.417092 -0.003189
    CHANNELS 3 Yrotation Xrotation Zrotation
    JOINT RightToe
    {
     OFFSET 0.000000 -7.579396 17.243563
     CHANNELS 3 Yrotation Xrotation Zrotation
     End Site
     {
      OFFSET 0.000000 -1.500329 6.694466
     }
    }
   }
  }
 }
 JOINT LeftHip
 {
  OFFSET 7.826875 0.019532 0.001973
  CHANNELS 3 Yrotation Xrotation Zrotation
  JOINT LeftKnee
  {
   OFFSET 0.000000 -40.546152 -0.001885
   CHANNELS 3 Yrotation Xrotation Zrotation
   JOINT LeftAnkle
   {
    OFFSET 0.000000 -39.417092 -0.003189
    CHANNELS 3 Yrotation Xrotation Zrotation
    JOINT LeftToe
    {
     OFFSET 0.000000 -7.579396 17.243563
     CHANNELS 3 Yrotation Xrotation Zrotation
     End Site
     {
      OFFSET 0.000000 -1.500329 6.694466
     }
    }
   }
  }
 }
}
MOTION
Frames: 10
Frame Time: 0.008333
-11.525817 55.034790 -23.325084 61.747956 -18.307498 -3.412352 -8.075752 18.487673 2.002004 -4.747026 10.509561 1.193746 -5.924168 13.149465 1.358716 -4.747026 10.509561 1.193746 -15.794867 34.341837 -13.310788 -15.761278 15.317429 -12.297391 13.177350 -2.630023 -12.058359 5.069122 -20.785489 44.574780 83.016178 -9.460807 18.271715 12.595905 -6.520664 -23.092179 -2.550659 -12.540228 1.767903 -27.752952 -29.419116 -36.594869 -88.168747 -8.210702 -41.692169 1.843272 1.163513 9.718822 -38.408102 -58.863447 10.148433 -102.686919 81.816729 -115.196641 -3.911478 -15.906652 4.806920 -0.119513 0.486270 -0.050657 3.276832 -57.351422 -32.444492 107.615778 73.531635 121.136389 1.064460 -16.125677 -6.454362 -0.176266 -0.577150 -0.080165
-11.524008 55.035707 -23.324341 61.743908 -18.305331 -3.412086 -8.080327 18.489146 2.007292 -4.747997 10.508635 1.195790 -5.925325 13.148337 1.361265 -4.747997 10.508636 1.195790 -15.796785 34.333568 -13.325679 -15.760410 15.306936 -12.314551 13.135772 -2.594006 -12.050193 5.026526 -20.791623 44.586428 83.127951 -9.277538 18.202226 12.555766 -6.457757 -23.058688 -2.554640 -12.527518 1.762773 -27.728877 -29.398427 -36.590077 -88.200346 -8.225629 -41.674871 1.847021 1.157744 9.725076 -38.418545 -58.861863 10.156245 -102.691789 81.819602 -115.202526 -3.911616 -15.912596 4.804241 -0.118860 0.489831 -0.051813 3.268314 -57.355798 -32.445974 107.612853 73.522940 121.134159 1.071054 -16.118626 -6.457522 -0.179826 -0.584069 -0.083963
-11.522580 55.036844 -23.323285 61.733788 -18.301833 -3.411594 -8.078318 18.488799 2.018402 -4.749059 10.507068 1.197699 -5.926600 13.146404 1.363650 -4.749059 10.507068 1.197699 -15.802656 34.327762 -13.340911 -15.764600 15.300422 -12.331692 13.094679 -2.556539 -12.041313 5.007363 -20.802841 44.601053 83.222817 -9.128010 18.133554 12.522964 -6.409909 -23.031345 -2.560115 -12.512276 1.754404 -27.702064 -29.381829 -36.583991 -88.231145 -8.241393 -41.664090 1.850029 1.152643 9.731709 -38.434097 -58.859584 10.173549 -102.679908 81.825878 -115.193459 -3.913128 -15.916385 4.800543 -0.118106 0.493910 -0.053537 3.256419 -57.362658 -32.439502 107.619476 73.515502 121.140014 1.078776 -16.114805 -6.463657 -0.179749 -0.589859 -0.086272
-11.521464 55.037995 -23.322560 61.717421 -18.296199 -3.407228 -8.069581 18.485352 2.031656 -4.749896 10.505444 1.199572 -5.927592 13.144400 1.365997 -4.749896 10.505444 1.199572 -15.812700 34.323694 -13.354941 -15.774329 15.296778 -12.346845 13.055601 -2.520449 -12.033360 4.995889 -20.824953 44.622048 83.302619 -9.001026 18.077662 12.492741 -6.379061 -23.021738 -2.565507 -12.495128 1.743484 -27.683368 -29.370444 -36.574464 -88.257175 -8.255450 -41.649863 1.846461 1.149306 9.733047 -38.449416 -58.860378 10.193708 -102.647116 81.833971 -115.165556 -3.910044 -15.918453 4.796340 -0.117509 0.498744 -0.056097 3.249431 -57.371736 -32.431068 107.619979 73.504733 121.135915 1.080958 -16.114846 -6.469506 -0.178395 -0.593435 -0.086669
-11.520179 55.039181 -23.322181 61.703111 -18.291226 -3.400319 -8.062470 18.481677 2.041866 -4.750549 10.504231 1.201432 -5.928356 13.142910 1.368327 -4.750549 10.504231 1.201432 -15.825552 34.321319 -13.366200 -15.788172 15.295676 -12.358318 13.024109 -2.488455 -12.025021 4.984624 -20.857789 44.650810 83.372390 -8.889770 18.038148 12.457621 -6.356007 -23.028665 -2.569004 -12.475725 1.732801 -27.674246 -29.365836 -36.562907 -88.274342 -8.269952 -41.632631 1.838745 1.150761 9.727277 -38.463414 -58.863223 10.207422 -102.624442 81.842677 -115.148500 -3.902189 -15.921445 4.791782 -0.118162 0.502771 -0.058744 3.244126 -57.380464 -32.424233 107.612923 73.491437 121.119982 1.077488 -16.115376 -6.472216 -0.177137 -0.596398 -0.086512
-11.518496 55.040311 -23.322373 61.694955 -18.287678 -3.390557 -8.061119 18.478447 2.046316 -4.751346 10.503454 1.202952 -5.929310 13.141959 1.370221 -4.751346 10.503454 1.202952 -15.839592 34.320546 -13.374777 -15.804090 15.296802 -12.366468 13.001764 -2.463738 -12.013161 4.984215 -20.893891 44.678226 83.437802 -8.784528 18.003944 12.406527 -6.328542 -23.046309 -2.572658 -12.453087 1.722608 -27.662485 -29.366158 -36.550862 -88.291961 -8.284617 -41.619534 1.835497 1.150175 9.726137 -38.476293 -58.868753 10.212196 -102.619534 81.850634 -115.149706 -3.894498 -15.924835 4.786429 -0.121594 0.505127 -0.060258 3.237930 -57.387695 -32.424731 107.608004 73.483133 121.105277 1.078373 -16.113806 -6.475148 -0.176337 -0.599321 -0.086416
-11.516835 55.041201 -23.323071 61.686521 -18.284047 -3.377586 -8.059105 18.474879 2.048656 -4.752210 10.502834 1.204221 -5.930357 13.141203 1.371796 -4.752210 10.502834 1.204221 -15.854734 34.320252 -13.381576 -15.821730 15.298616 -12.372322 12.986132 -2.446877 -12.000561 5.001879 -20.927236 44.700927 83.508383 -8.650391 17.959526 12.325093 -6.291243 -23.073543 -2.578063 -12.428863 1.710580 -27.645422 -29.365173 -36.537684 -88.317801 -8.293974 -41.605170 1.832801 1.145007 9.729732 -38.490035 -58.877534 10.217612 -102.609649 81.856281 -115.147509 -3.887849 -15.925317 4.778065 -0.125429 0.505672 -0.059650 3.232218 -57.394917 -32.428483 107.606128 73.478427 121.092126 1.083887 -16.113628 -6.477906 -0.176813 -0.600361 -0.087344
-11.515512 55.041811 -23.323795 61.675277 -18.280275 -3.363985 -8.052891 18.472110 2.052380 -4.753017 10.501939 1.205720 -5.931325 13.140105 1.373666 -4.753017 10.501939 1.205720 -15.871589 34.319955 -13.386113 -15.841900 15.300475 -12.375155 12.976377 -2.435798 -11.992177 5.029476 -20.952219 44.726348 83.597239 -8.440234 17.894878 12.206091 -6.246365 -23.112334 -2.586275 -12.405517 1.697877 -27.629828 -29.357942 -36.522830 -88.345018 -8.299564 -41.583636 1.826242 1.139643 9.732195 -38.506012 -58.887198 10.228429 -102.598238 81.862421 -115.146270 -3.881018 -15.923005 4.768407 -0.128692 0.504717 -0.058528 3.225029 -57.402699 -32.426484 107.604806 73.472232 121.075442 1.086224 -16.118831 -6.477307 -0.178053 -0.598221 -0.089225
-11.514235 55.042197 -23.324495 61.666275 -18.277837 -3.350560 -8.048367 18.471816 2.055430 -4.753917 10.500622 1.207027 -5.932415 13.138478 1.375296 -4.753917 10.500622 1.207027 -15.889405 34.319558 -13.387905 -15.863737 15.302122 -12.374496 12.974278 -2.429771 -11.987346 5.065603 -20.957355 44.753660 83.710526 -8.146000 17.803284 12.054022 -6.187194 -23.160385 -2.595015 -12.382830 1.687814 -27.619245 -29.345603 -36.507031 -88.372938 -8.302978 -41.553696 1.819747 1.132594 9.734143 -38.520306 -58.896617 10.236355 -102.611650 81.871062 -115.171310 -3.875671 -15.921812 4.761846 -0.132562 0.503221 -0.059075 3.216045 -57.409577 -32.422085 107.604243 73.465568 121.057615 1.083656 -16.126146 -6.475721 -0.177733 -0.595026 -0.089804
-11.513000 55.042288 -23.325505 61.662198 -18.275522 -3.336118 -8.048036 18.471493 2.056329 -4.754492 10.499571 1.207826 -5.933111 13.137175 1.376295 -4.754492 10.499571 1.207826 -15.907794 34.318473 -13.386750 -15.886752 15.302663 -12.370111 12.976178 -2.430279 -11.983679 5.118307 -20.936015 44.773862 83.847735 -7.796991 17.685372 11.874996 -6.101076 -23.213259 -2.605265 -12.360500 1.682568 -27.610756 -29.333937 -36.491891 -88.405347 -8.301926 -41.517936 1.813485 1.124669 9.734125 -38.531959 -58.908090 10.239894 -102.637872 81.876194 -115.208296 -3.875248 -15.921805 4.758397 -0.132833 0.501410 -0.059979 3.208810 -57.416801 -32.422924 107.603217 73.460873 121.039726 1.079634 -16.130066 -6.475151 -0.177066 -0.593287 -0.088472
